<?xml version="1.0" encoding="UTF-8"?>
<svg xmlns="http://www.w3.org/2000/svg" xmlns:xlink="http://www.w3.org/1999/xlink" width="70px" height="70px" viewBox="0 0 70 70" version="1.1">
<defs>
<clipPath id="clip1">
  <path d="M 14.363281 14.359375 L 55.570312 14.359375 L 55.570312 55.535156 L 14.363281 55.535156 Z M 14.363281 14.359375 "/>
</clipPath>
<clipPath id="clip2">
  <path d="M 23.800781 20.542969 L 39.199219 20.542969 L 39.199219 49.386719 L 23.800781 49.386719 Z M 23.800781 20.542969 "/>
</clipPath>
<clipPath id="clip3">
  <path d="M 28.558594 20.542969 L 39.199219 20.542969 L 39.199219 49.386719 L 28.558594 49.386719 Z M 28.558594 20.542969 "/>
</clipPath>
<clipPath id="clip4">
  <path d="M 28.558594 36.867188 L 38.921875 36.867188 L 38.921875 49.386719 L 28.558594 49.386719 Z M 28.558594 36.867188 "/>
</clipPath>
<clipPath id="clip5">
  <path d="M 39 20.542969 L 45 20.542969 L 45 33.601562 L 39 33.601562 Z M 39 20.542969 "/>
</clipPath>
<clipPath id="clip6">
  <path d="M 39 20.542969 L 46.199219 20.542969 L 46.199219 29.867188 L 39 29.867188 Z M 39 20.542969 "/>
</clipPath>
<clipPath id="clip7">
  <path d="M 2.519531 43.398438 L 66.359375 43.398438 L 66.359375 69.929688 L 2.519531 69.929688 Z M 2.519531 43.398438 "/>
</clipPath>
</defs>
<g id="surface1">
<g clip-path="url(#clip1)" clip-rule="nonzero">
<path style=" stroke:none;fill-rule:nonzero;fill:rgb(90.588235%,47.45098%,9.019608%);fill-opacity:1;" d="M 55.464844 34.964844 C 55.464844 46.289062 46.285156 55.464844 34.964844 55.464844 C 23.644531 55.464844 14.464844 46.289062 14.464844 34.964844 C 14.464844 23.644531 23.644531 14.464844 34.964844 14.464844 C 46.285156 14.464844 55.464844 23.644531 55.464844 34.964844 Z M 55.464844 34.964844 "/>
</g>
<g clip-path="url(#clip2)" clip-rule="nonzero">
<path style=" stroke:none;fill-rule:evenodd;fill:rgb(98.039216%,98.039216%,98.039216%);fill-opacity:1;" d="M 23.804688 23.371094 L 28.824219 49.386719 L 27.09375 31.972656 L 35.652344 31.417969 L 35.632812 28.5 L 39.011719 20.542969 L 35.789062 25.84375 Z M 23.804688 23.371094 "/>
</g>
<g clip-path="url(#clip3)" clip-rule="nonzero">
<path style=" stroke:none;fill-rule:evenodd;fill:rgb(98.039216%,98.039216%,98.039216%);fill-opacity:1;" d="M 37.492188 36.335938 L 39.011719 20.542969 L 36.433594 32.257812 L 30.652344 32.566406 L 31.113281 38.597656 L 28.824219 49.386719 L 32.378906 37.621094 Z M 37.492188 36.335938 "/>
</g>
<g clip-path="url(#clip4)" clip-rule="nonzero">
<path style=" stroke:none;fill-rule:evenodd;fill:rgb(98.039216%,98.039216%,98.039216%);fill-opacity:1;" d="M 38.496094 40.058594 L 38.65625 36.976562 L 33.945312 38.085938 L 33.9375 41.5625 L 28.824219 49.386719 L 35.21875 41.242188 Z M 38.496094 40.058594 "/>
</g>
<path style=" stroke:none;fill-rule:evenodd;fill:rgb(98.039216%,98.039216%,98.039216%);fill-opacity:1;" d="M 39.355469 38.648438 L 43.730469 37.253906 L 44.175781 33.554688 L 39.488281 34.175781 Z M 39.355469 38.648438 "/>
<g clip-path="url(#clip5)" clip-rule="nonzero">
<path style=" stroke:none;fill-rule:evenodd;fill:rgb(98.039216%,98.039216%,98.039216%);fill-opacity:1;" d="M 41.230469 33.371094 L 44.46875 32.953125 L 44.9375 29.921875 L 42.554688 29.8125 L 39.011719 20.542969 L 41.496094 29.675781 Z M 41.230469 33.371094 "/>
</g>
<g clip-path="url(#clip6)" clip-rule="nonzero">
<path style=" stroke:none;fill-rule:evenodd;fill:rgb(98.039216%,98.039216%,98.039216%);fill-opacity:1;" d="M 45.753906 29.476562 L 46.125 26.671875 L 43.308594 25.878906 L 39.011719 20.542969 L 43.28125 27.160156 L 43.160156 29.222656 Z M 45.753906 29.476562 "/>
</g>
<g clip-path="url(#clip7)" clip-rule="nonzero">
<path style=" stroke:none;fill-rule:nonzero;fill:rgb(7.45098%,3.529412%,7.058824%);fill-opacity:1;" d="M 6.792969 52.246094 C 6.820312 52.308594 6.8125 52.371094 6.769531 52.429688 C 6.722656 52.492188 6.652344 52.542969 6.550781 52.582031 C 6.363281 52.660156 6.195312 52.671875 6.046875 52.628906 C 5.671875 52.507812 5.363281 52.363281 5.113281 52.1875 C 4.863281 52.011719 4.671875 51.765625 4.542969 51.441406 C 4.398438 51.082031 4.382812 50.75 4.503906 50.4375 C 4.621094 50.125 4.859375 49.78125 5.226562 49.402344 C 5.484375 49.128906 5.671875 48.910156 5.792969 48.753906 C 5.910156 48.59375 5.984375 48.453125 6.011719 48.339844 C 6.039062 48.21875 6.03125 48.089844 5.988281 47.941406 L 5.421875 48.078125 C 4.691406 48.257812 4.113281 48.261719 3.6875 48.097656 C 3.265625 47.929688 2.949219 47.585938 2.742188 47.074219 C 2.609375 46.742188 2.570312 46.414062 2.625 46.089844 C 2.683594 45.765625 2.816406 45.5 3.023438 45.300781 C 3.097656 45.230469 3.183594 45.171875 3.285156 45.132812 C 3.433594 45.074219 3.570312 45.058594 3.707031 45.082031 C 3.839844 45.105469 3.925781 45.171875 3.96875 45.277344 C 3.996094 45.339844 4.003906 45.402344 3.988281 45.457031 C 3.972656 45.511719 3.9375 45.578125 3.875 45.644531 C 3.65625 45.910156 3.511719 46.121094 3.449219 46.28125 C 3.382812 46.4375 3.386719 46.601562 3.453125 46.769531 C 3.53125 46.964844 3.6875 47.09375 3.921875 47.160156 C 4.152344 47.222656 4.464844 47.210938 4.855469 47.121094 L 5.582031 46.941406 L 5.535156 46.828125 C 5.492188 46.714844 5.484375 46.617188 5.523438 46.527344 C 5.5625 46.4375 5.636719 46.375 5.746094 46.328125 C 5.871094 46.277344 5.984375 46.269531 6.085938 46.304688 C 6.1875 46.339844 6.257812 46.402344 6.296875 46.5 L 6.394531 46.738281 C 6.644531 46.675781 6.820312 46.632812 6.917969 46.613281 L 8.636719 46.175781 C 8.601562 46.042969 8.558594 45.921875 8.515625 45.808594 C 8.347656 45.398438 8.148438 45.117188 7.921875 44.960938 C 7.691406 44.808594 7.445312 44.785156 7.179688 44.894531 C 7.058594 44.941406 6.964844 44.996094 6.902344 45.054688 C 6.839844 45.109375 6.769531 45.175781 6.695312 45.257812 C 6.664062 45.292969 6.625 45.320312 6.578125 45.339844 C 6.472656 45.386719 6.359375 45.371094 6.238281 45.304688 C 6.117188 45.238281 6.035156 45.144531 5.984375 45.023438 C 5.921875 44.871094 5.945312 44.730469 6.046875 44.601562 C 6.246094 44.351562 6.492188 44.167969 6.789062 44.050781 C 7.089844 43.925781 7.402344 43.894531 7.722656 43.960938 C 8.039062 44.023438 8.34375 44.195312 8.632812 44.472656 C 8.921875 44.746094 9.167969 45.132812 9.371094 45.632812 C 9.457031 45.847656 9.527344 46.050781 9.574219 46.242188 C 9.625 46.433594 9.664062 46.652344 9.683594 46.894531 C 9.707031 47.164062 9.617188 47.335938 9.417969 47.414062 C 9.15625 47.523438 8.976562 47.464844 8.882812 47.238281 L 6.824219 47.746094 C 7.109375 48.289062 7.539062 48.648438 8.109375 48.832031 C 8.679688 49.011719 9.382812 49.070312 10.214844 49.007812 C 10.363281 49 10.496094 49.027344 10.613281 49.105469 C 10.726562 49.179688 10.816406 49.296875 10.882812 49.453125 C 10.9375 49.589844 10.949219 49.707031 10.921875 49.808594 C 10.890625 49.90625 10.820312 49.976562 10.707031 50.023438 C 10.675781 50.035156 10.613281 50.050781 10.53125 50.0625 C 9.636719 50.144531 8.863281 50.054688 8.210938 49.796875 C 7.5625 49.539062 7.050781 49.175781 6.679688 48.707031 C 6.710938 48.910156 6.707031 49.085938 6.667969 49.242188 C 6.628906 49.390625 6.5625 49.535156 6.46875 49.671875 C 6.375 49.804688 6.234375 49.972656 6.050781 50.171875 C 5.792969 50.449219 5.625 50.679688 5.546875 50.867188 C 5.464844 51.050781 5.460938 51.226562 5.53125 51.402344 C 5.59375 51.554688 5.707031 51.683594 5.867188 51.78125 C 6.027344 51.878906 6.277344 51.980469 6.613281 52.09375 C 6.703125 52.121094 6.765625 52.171875 6.792969 52.246094 Z M 8.34375 54.714844 C 8.378906 54.769531 8.378906 54.832031 8.34375 54.898438 C 8.3125 54.964844 8.25 55.027344 8.15625 55.082031 C 7.976562 55.191406 7.8125 55.234375 7.664062 55.207031 C 7.363281 55.164062 7.039062 55.042969 6.683594 54.847656 C 6.332031 54.648438 6.054688 54.378906 5.847656 54.035156 C 5.5625 53.566406 5.46875 53.128906 5.566406 52.714844 C 5.660156 52.300781 5.929688 51.960938 6.371094 51.695312 C 6.679688 51.507812 7.003906 51.398438 7.347656 51.367188 C 7.691406 51.335938 8.011719 51.386719 8.308594 51.519531 C 8.601562 51.65625 8.839844 51.867188 9.011719 52.15625 C 9.171875 52.417969 9.21875 52.667969 9.15625 52.917969 C 9.101562 53.167969 8.9375 53.375 8.679688 53.53125 C 8.371094 53.71875 8.039062 53.769531 7.683594 53.683594 C 7.328125 53.59375 6.929688 53.328125 6.480469 52.878906 C 6.34375 53.117188 6.371094 53.390625 6.558594 53.703125 C 6.683594 53.902344 6.890625 54.089844 7.183594 54.257812 C 7.480469 54.429688 7.800781 54.539062 8.140625 54.589844 C 8.234375 54.605469 8.300781 54.648438 8.34375 54.714844 Z M 8.289062 52.441406 C 8.191406 52.277344 8.007812 52.195312 7.75 52.199219 C 7.488281 52.199219 7.222656 52.285156 6.949219 52.449219 L 6.9375 52.457031 C 7.160156 52.683594 7.378906 52.832031 7.59375 52.910156 C 7.808594 52.984375 8 52.972656 8.167969 52.871094 C 8.253906 52.820312 8.304688 52.753906 8.328125 52.679688 C 8.351562 52.601562 8.339844 52.523438 8.289062 52.441406 Z M 10.222656 57.15625 C 10.265625 57.210938 10.269531 57.269531 10.242188 57.339844 C 10.214844 57.410156 10.160156 57.476562 10.074219 57.539062 C 9.90625 57.667969 9.746094 57.722656 9.59375 57.714844 C 9.292969 57.699219 8.957031 57.613281 8.585938 57.449219 C 8.21875 57.285156 7.914062 57.046875 7.671875 56.726562 C 7.34375 56.285156 7.207031 55.859375 7.265625 55.4375 C 7.320312 55.015625 7.554688 54.652344 7.96875 54.34375 C 8.253906 54.125 8.570312 53.984375 8.90625 53.921875 C 9.246094 53.855469 9.570312 53.875 9.875 53.980469 C 10.183594 54.085938 10.4375 54.277344 10.640625 54.546875 C 10.824219 54.789062 10.894531 55.035156 10.859375 55.289062 C 10.824219 55.542969 10.6875 55.761719 10.441406 55.945312 C 10.15625 56.164062 9.828125 56.246094 9.464844 56.191406 C 9.105469 56.140625 8.679688 55.914062 8.191406 55.511719 C 8.078125 55.761719 8.132812 56.03125 8.351562 56.324219 C 8.492188 56.511719 8.714844 56.675781 9.027344 56.816406 C 9.335938 56.957031 9.664062 57.035156 10.011719 57.050781 C 10.105469 57.058594 10.175781 57.09375 10.222656 57.15625 Z M 9.949219 54.898438 C 9.832031 54.742188 9.644531 54.683594 9.386719 54.710938 C 9.128906 54.738281 8.871094 54.847656 8.617188 55.039062 L 8.605469 55.046875 C 8.847656 55.25 9.082031 55.378906 9.300781 55.433594 C 9.527344 55.488281 9.714844 55.453125 9.867188 55.339844 C 9.949219 55.28125 9.996094 55.210938 10.011719 55.128906 C 10.023438 55.050781 10.003906 54.972656 9.949219 54.898438 Z M 13.015625 59.925781 C 13.0625 59.972656 13.078125 60.03125 13.058594 60.101562 C 13.042969 60.175781 12.996094 60.25 12.917969 60.324219 C 12.769531 60.472656 12.617188 60.550781 12.464844 60.5625 C 12.113281 60.59375 11.78125 60.578125 11.472656 60.519531 C 11.167969 60.457031 10.898438 60.3125 10.667969 60.078125 C 10.476562 59.882812 10.390625 59.652344 10.410156 59.390625 C 10.066406 59.3125 9.777344 59.164062 9.546875 58.933594 C 8.78125 59.589844 8.074219 60.070312 7.425781 60.371094 C 6.777344 60.671875 6.289062 60.65625 5.964844 60.324219 C 5.765625 60.125 5.691406 59.90625 5.746094 59.667969 C 5.792969 59.429688 5.945312 59.183594 6.203125 58.929688 C 6.566406 58.574219 7.074219 58.242188 7.722656 57.929688 C 8.375 57.621094 9.160156 57.355469 10.089844 57.132812 C 10.632812 56.601562 11.003906 56.226562 11.210938 56.007812 C 11.316406 55.898438 11.441406 55.859375 11.59375 55.886719 C 11.742188 55.914062 11.882812 55.996094 12.015625 56.128906 C 12.09375 56.207031 12.132812 56.277344 12.136719 56.34375 C 12.140625 56.410156 12.097656 56.492188 12.007812 56.585938 C 11.914062 56.679688 11.847656 56.75 11.804688 56.792969 C 12.070312 56.765625 12.292969 56.78125 12.472656 56.832031 C 12.648438 56.882812 12.800781 56.972656 12.929688 57.105469 C 13.136719 57.3125 13.21875 57.5625 13.179688 57.859375 C 13.140625 58.15625 12.988281 58.4375 12.71875 58.707031 C 12.519531 58.898438 12.296875 59.054688 12.046875 59.171875 C 11.800781 59.292969 11.546875 59.371094 11.285156 59.410156 C 11.335938 59.507812 11.390625 59.585938 11.441406 59.636719 C 11.5625 59.761719 11.722656 59.832031 11.921875 59.855469 C 12.117188 59.882812 12.410156 59.878906 12.789062 59.847656 C 12.882812 59.84375 12.957031 59.867188 13.015625 59.925781 Z M 10.109375 58.4375 C 10.269531 58.542969 10.464844 58.59375 10.695312 58.59375 C 10.921875 58.589844 11.15625 58.539062 11.394531 58.433594 C 11.632812 58.332031 11.847656 58.1875 12.035156 58.003906 C 12.148438 57.890625 12.210938 57.789062 12.226562 57.6875 C 12.238281 57.585938 12.207031 57.5 12.136719 57.421875 C 12.003906 57.289062 11.707031 57.265625 11.234375 57.355469 C 11.070312 57.511719 10.828125 57.746094 10.511719 58.054688 C 10.339844 58.222656 10.207031 58.351562 10.109375 58.4375 Z M 6.554688 59.832031 C 6.652344 59.9375 6.953125 59.804688 7.457031 59.441406 C 7.960938 59.082031 8.546875 58.589844 9.214844 57.96875 C 8.683594 58.175781 8.207031 58.398438 7.777344 58.632812 C 7.34375 58.875 7.015625 59.109375 6.785156 59.335938 C 6.667969 59.453125 6.589844 59.554688 6.554688 59.644531 C 6.519531 59.734375 6.519531 59.796875 6.554688 59.832031 Z M 12.535156 62.121094 C 12.328125 61.945312 12.210938 61.765625 12.179688 61.578125 C 12.152344 61.386719 12.1875 61.234375 12.285156 61.113281 C 12.371094 61.011719 12.484375 60.953125 12.625 60.9375 C 12.765625 60.925781 12.910156 60.984375 13.054688 61.105469 C 13.109375 61.148438 13.164062 61.203125 13.226562 61.273438 C 13.289062 61.339844 13.335938 61.390625 13.367188 61.429688 C 13.449219 61.320312 13.511719 61.203125 13.542969 61.074219 C 13.578125 60.949219 13.601562 60.8125 13.605469 60.675781 C 13.617188 60.535156 13.617188 60.410156 13.617188 60.300781 C 13.292969 60.433594 13.007812 60.527344 12.757812 60.582031 C 12.503906 60.632812 12.246094 60.671875 11.984375 60.691406 C 11.855469 60.703125 11.75 60.675781 11.667969 60.609375 C 11.605469 60.554688 11.570312 60.488281 11.570312 60.410156 C 11.570312 60.332031 11.597656 60.257812 11.652344 60.191406 C 11.71875 60.109375 11.808594 60.058594 11.921875 60.035156 L 12.078125 60.007812 C 12.527344 59.917969 12.878906 59.832031 13.140625 59.75 C 13.304688 59.691406 13.511719 59.601562 13.765625 59.484375 C 14.019531 59.367188 14.277344 59.242188 14.539062 59.105469 C 14.761719 58.996094 14.996094 59.039062 15.234375 59.238281 C 15.347656 59.332031 15.414062 59.40625 15.441406 59.464844 C 15.46875 59.519531 15.464844 59.570312 15.429688 59.613281 C 15.40625 59.636719 15.371094 59.667969 15.3125 59.707031 C 15.25 59.746094 15.183594 59.78125 15.113281 59.808594 C 14.921875 59.894531 14.785156 59.984375 14.699219 60.085938 C 14.652344 60.148438 14.617188 60.230469 14.597656 60.335938 C 14.582031 60.445312 14.570312 60.589844 14.570312 60.769531 C 14.554688 61.046875 14.535156 61.269531 14.503906 61.441406 C 14.46875 61.613281 14.394531 61.769531 14.277344 61.910156 C 14.242188 61.949219 14.195312 62.003906 14.125 62.070312 C 14.386719 62.15625 14.78125 62.144531 15.320312 62.039062 C 15.414062 62.023438 15.492188 62.042969 15.554688 62.089844 C 15.605469 62.132812 15.625 62.191406 15.617188 62.261719 C 15.605469 62.335938 15.566406 62.414062 15.496094 62.5 C 15.367188 62.652344 15.226562 62.746094 15.070312 62.777344 C 14.664062 62.859375 14.332031 62.867188 14.078125 62.804688 C 13.820312 62.746094 13.550781 62.605469 13.277344 62.390625 C 13.003906 62.394531 12.757812 62.300781 12.535156 62.121094 Z M 22.925781 66.089844 C 22.957031 66.09375 23 66.109375 23.054688 66.140625 C 23.214844 66.21875 23.242188 66.363281 23.136719 66.566406 C 23.082031 66.675781 23.007812 66.757812 22.917969 66.8125 C 22.832031 66.859375 22.730469 66.871094 22.621094 66.835938 C 22.15625 66.699219 21.695312 66.574219 21.238281 66.460938 L 21.132812 66.617188 C 20.535156 67.464844 19.929688 68.007812 19.316406 68.25 C 18.707031 68.488281 18.109375 68.457031 17.53125 68.160156 C 17.144531 67.964844 16.894531 67.714844 16.78125 67.417969 C 16.667969 67.125 16.683594 66.828125 16.835938 66.539062 C 17.085938 66.050781 17.523438 65.730469 18.15625 65.570312 C 18.785156 65.417969 19.621094 65.421875 20.65625 65.582031 L 21.296875 64.675781 C 21.371094 64.574219 21.472656 64.433594 21.59375 64.261719 C 21.082031 64.726562 20.582031 65.015625 20.101562 65.121094 C 19.617188 65.230469 19.164062 65.179688 18.746094 64.964844 C 18.347656 64.761719 18.109375 64.480469 18.023438 64.128906 C 17.941406 63.78125 17.996094 63.414062 18.195312 63.027344 C 18.28125 62.859375 18.398438 62.675781 18.542969 62.492188 C 18.683594 62.304688 18.886719 62.054688 19.148438 61.742188 C 19.382812 61.457031 19.5625 61.230469 19.695312 61.058594 C 19.828125 60.886719 19.933594 60.726562 20.007812 60.578125 C 20.121094 60.355469 20.09375 60.199219 19.921875 60.113281 C 19.785156 60.042969 19.59375 60.027344 19.34375 60.066406 C 19.09375 60.101562 18.796875 60.207031 18.453125 60.375 C 18.339844 60.429688 18.246094 60.4375 18.167969 60.398438 C 18.101562 60.363281 18.0625 60.304688 18.046875 60.214844 C 18.03125 60.128906 18.042969 60.046875 18.082031 59.964844 C 18.15625 59.824219 18.304688 59.691406 18.527344 59.578125 C 19.332031 59.171875 20.050781 59.132812 20.6875 59.457031 C 20.96875 59.605469 21.148438 59.800781 21.21875 60.054688 C 21.289062 60.308594 21.242188 60.601562 21.070312 60.9375 C 20.945312 61.175781 20.796875 61.414062 20.625 61.644531 C 20.449219 61.875 20.21875 62.160156 19.929688 62.507812 C 19.757812 62.707031 19.621094 62.875 19.519531 63 C 19.417969 63.128906 19.34375 63.238281 19.296875 63.328125 C 19.175781 63.566406 19.128906 63.757812 19.160156 63.902344 C 19.191406 64.046875 19.3125 64.171875 19.523438 64.28125 C 19.773438 64.40625 20.097656 64.402344 20.503906 64.261719 C 20.90625 64.121094 21.355469 63.824219 21.855469 63.371094 C 22.355469 62.917969 22.859375 62.308594 23.367188 61.546875 C 23.496094 61.355469 23.621094 61.234375 23.75 61.195312 C 23.878906 61.148438 24.019531 61.167969 24.175781 61.25 C 24.503906 61.414062 24.582031 61.660156 24.414062 61.988281 C 24.386719 62.042969 24.363281 62.085938 24.339844 62.117188 C 23.890625 62.753906 23.476562 63.332031 23.109375 63.847656 C 22.890625 64.15625 22.664062 64.476562 22.433594 64.800781 C 22.199219 65.125 21.960938 65.453125 21.726562 65.789062 C 22.109375 65.871094 22.511719 65.96875 22.925781 66.089844 Z M 20.144531 66.304688 L 20.175781 66.257812 C 18.855469 66.070312 18.050781 66.257812 17.765625 66.8125 C 17.699219 66.945312 17.683594 67.074219 17.722656 67.199219 C 17.757812 67.328125 17.851562 67.429688 18 67.507812 C 18.640625 67.835938 19.355469 67.433594 20.144531 66.304688 Z M 26.839844 66.691406 C 26.90625 66.710938 26.945312 66.761719 26.957031 66.835938 C 26.972656 66.910156 26.960938 67 26.929688 67.101562 C 26.851562 67.339844 26.734375 67.457031 26.578125 67.453125 C 26.246094 67.460938 25.902344 67.414062 25.539062 67.3125 C 25.308594 67.699219 25.015625 67.972656 24.65625 68.132812 C 24.296875 68.292969 23.941406 68.316406 23.589844 68.203125 C 23.292969 68.109375 23.0625 67.953125 22.898438 67.742188 C 22.734375 67.527344 22.636719 67.285156 22.601562 67.015625 C 22.570312 66.738281 22.601562 66.464844 22.691406 66.1875 C 22.8125 65.808594 22.992188 65.496094 23.230469 65.25 C 23.472656 65 23.746094 64.832031 24.050781 64.75 C 24.359375 64.664062 24.664062 64.671875 24.972656 64.773438 C 25.351562 64.894531 25.609375 65.125 25.757812 65.460938 C 25.902344 65.792969 25.933594 66.15625 25.851562 66.550781 C 26.089844 66.613281 26.382812 66.652344 26.730469 66.675781 C 26.773438 66.675781 26.8125 66.683594 26.839844 66.691406 Z M 23.902344 67.433594 C 24.0625 67.484375 24.222656 67.464844 24.378906 67.375 C 24.539062 67.285156 24.679688 67.125 24.796875 66.890625 C 24.675781 66.742188 24.601562 66.566406 24.574219 66.367188 C 24.546875 66.175781 24.5625 65.984375 24.625 65.792969 C 24.652344 65.714844 24.683594 65.636719 24.726562 65.5625 L 24.6875 65.550781 C 24.488281 65.488281 24.292969 65.527344 24.101562 65.679688 C 23.910156 65.824219 23.753906 66.074219 23.640625 66.421875 C 23.554688 66.691406 23.539062 66.917969 23.597656 67.097656 C 23.660156 67.277344 23.761719 67.390625 23.902344 67.433594 Z M 26.628906 69.085938 C 26.402344 69.039062 26.234375 68.894531 26.132812 68.652344 C 26.03125 68.410156 26.011719 68.132812 26.074219 67.816406 C 26.152344 67.433594 26.253906 67.085938 26.371094 66.777344 C 26.484375 66.46875 26.636719 66.148438 26.828125 65.816406 C 26.910156 65.671875 27.003906 65.578125 27.113281 65.527344 C 27.21875 65.480469 27.367188 65.476562 27.566406 65.515625 C 27.679688 65.542969 27.753906 65.574219 27.792969 65.621094 C 27.824219 65.664062 27.835938 65.722656 27.820312 65.792969 C 27.8125 65.835938 27.757812 65.96875 27.65625 66.191406 C 27.566406 66.367188 27.488281 66.53125 27.425781 66.679688 C 27.214844 67.195312 27.089844 67.539062 27.054688 67.722656 C 27.03125 67.828125 27.027344 67.902344 27.046875 67.953125 C 27.0625 68.003906 27.097656 68.03125 27.15625 68.042969 C 27.230469 68.058594 27.34375 68.003906 27.488281 67.871094 C 27.632812 67.742188 27.804688 67.539062 28 67.253906 C 28.195312 66.964844 28.398438 66.609375 28.613281 66.179688 C 28.6875 66.035156 28.769531 65.9375 28.871094 65.890625 C 28.964844 65.839844 29.097656 65.832031 29.269531 65.867188 C 29.386719 65.890625 29.464844 65.921875 29.503906 65.960938 C 29.542969 65.996094 29.554688 66.054688 29.542969 66.132812 C 29.515625 66.257812 29.378906 66.59375 29.136719 67.140625 C 28.859375 67.765625 28.703125 68.152344 28.671875 68.304688 C 28.652344 68.402344 28.65625 68.480469 28.6875 68.542969 C 28.71875 68.605469 28.765625 68.644531 28.832031 68.660156 C 28.933594 68.679688 29.066406 68.640625 29.234375 68.546875 C 29.402344 68.449219 29.628906 68.285156 29.921875 68.050781 C 29.996094 67.992188 30.074219 67.972656 30.148438 67.988281 C 30.214844 68.003906 30.261719 68.042969 30.289062 68.113281 C 30.3125 68.179688 30.316406 68.269531 30.292969 68.375 C 30.253906 68.578125 30.171875 68.726562 30.054688 68.820312 C 29.777344 69.046875 29.496094 69.21875 29.207031 69.339844 C 28.917969 69.464844 28.613281 69.492188 28.289062 69.425781 C 28.046875 69.375 27.886719 69.246094 27.8125 69.03125 C 27.734375 68.820312 27.730469 68.542969 27.800781 68.199219 C 27.644531 68.527344 27.457031 68.769531 27.246094 68.917969 C 27.035156 69.070312 26.828125 69.125 26.628906 69.085938 Z M 30.152344 69.722656 C 29.957031 69.703125 29.824219 69.589844 29.761719 69.371094 C 29.703125 69.160156 29.691406 68.824219 29.730469 68.363281 C 29.789062 67.691406 29.9375 67.058594 30.183594 66.46875 C 30.246094 66.320312 30.332031 66.21875 30.445312 66.15625 C 30.554688 66.09375 30.707031 66.074219 30.898438 66.089844 C 31.003906 66.097656 31.074219 66.117188 31.113281 66.148438 C 31.15625 66.179688 31.171875 66.230469 31.164062 66.304688 C 31.15625 66.386719 31.101562 66.570312 31 66.851562 C 30.929688 67.054688 30.871094 67.234375 30.828125 67.386719 C 30.78125 67.539062 30.738281 67.730469 30.695312 67.957031 C 30.910156 67.523438 31.132812 67.179688 31.367188 66.917969 C 31.605469 66.65625 31.832031 66.472656 32.046875 66.371094 C 32.261719 66.269531 32.457031 66.226562 32.628906 66.238281 C 32.964844 66.269531 33.121094 66.453125 33.089844 66.792969 C 33.085938 66.859375 33.046875 67.019531 32.980469 67.273438 C 32.917969 67.480469 32.886719 67.609375 32.882812 67.660156 C 32.867188 67.839844 32.921875 67.9375 33.054688 67.949219 C 33.199219 67.964844 33.394531 67.867188 33.640625 67.65625 C 33.714844 67.59375 33.789062 67.566406 33.863281 67.570312 C 33.929688 67.578125 33.980469 67.613281 34.011719 67.675781 C 34.046875 67.738281 34.058594 67.820312 34.054688 67.921875 C 34.035156 68.109375 33.972656 68.253906 33.855469 68.355469 C 33.699219 68.496094 33.515625 68.605469 33.3125 68.695312 C 33.109375 68.789062 32.898438 68.824219 32.679688 68.804688 C 32.40625 68.78125 32.203125 68.691406 32.070312 68.539062 C 31.941406 68.386719 31.886719 68.191406 31.90625 67.949219 C 31.914062 67.871094 31.929688 67.796875 31.949219 67.71875 C 31.96875 67.617188 31.980469 67.546875 31.984375 67.511719 C 31.992188 67.429688 31.964844 67.382812 31.910156 67.378906 C 31.832031 67.375 31.722656 67.453125 31.578125 67.613281 C 31.4375 67.777344 31.289062 67.996094 31.140625 68.269531 C 30.992188 68.542969 30.863281 68.835938 30.757812 69.148438 C 30.683594 69.386719 30.601562 69.542969 30.519531 69.625 C 30.4375 69.703125 30.3125 69.734375 30.152344 69.722656 Z M 41.011719 67.453125 C 41.082031 67.441406 41.136719 67.464844 41.183594 67.523438 C 41.230469 67.578125 41.261719 67.664062 41.273438 67.769531 C 41.300781 67.972656 41.273438 68.140625 41.191406 68.273438 C 40.945312 68.65625 40.699219 68.933594 40.445312 69.109375 C 40.191406 69.285156 39.871094 69.398438 39.488281 69.445312 C 39.222656 69.480469 38.96875 69.480469 38.734375 69.441406 C 38.496094 69.402344 38.207031 69.339844 37.867188 69.246094 C 37.554688 69.152344 37.253906 69.085938 36.972656 69.039062 C 36.769531 69.554688 36.40625 69.847656 35.878906 69.917969 C 35.589844 69.953125 35.347656 69.917969 35.160156 69.808594 C 34.96875 69.699219 34.859375 69.539062 34.835938 69.335938 C 34.800781 69.078125 34.894531 68.851562 35.117188 68.652344 C 35.335938 68.453125 35.648438 68.332031 36.050781 68.277344 L 36.152344 68.265625 L 35.996094 65.988281 C 35.960938 65.46875 36 65.03125 36.109375 64.671875 C 36.222656 64.316406 36.398438 64.003906 36.644531 63.730469 C 36.855469 63.492188 37.105469 63.300781 37.394531 63.15625 C 37.6875 63.007812 38.003906 62.917969 38.34375 62.871094 C 38.902344 62.796875 39.351562 62.886719 39.6875 63.136719 C 40.023438 63.386719 40.222656 63.746094 40.285156 64.210938 C 40.324219 64.527344 40.300781 64.789062 40.210938 64.996094 C 40.125 65.207031 39.980469 65.324219 39.777344 65.351562 C 39.632812 65.367188 39.515625 65.347656 39.421875 65.289062 C 39.332031 65.230469 39.277344 65.132812 39.261719 65.007812 C 39.253906 64.960938 39.253906 64.875 39.257812 64.746094 C 39.269531 64.597656 39.269531 64.46875 39.253906 64.351562 C 39.226562 64.136719 39.140625 63.972656 38.996094 63.863281 C 38.855469 63.753906 38.652344 63.714844 38.394531 63.746094 C 37.941406 63.808594 37.609375 64 37.398438 64.332031 C 37.1875 64.660156 37.09375 65.144531 37.105469 65.789062 L 37.15625 67.570312 C 37.164062 67.824219 37.160156 68.042969 37.140625 68.226562 C 37.480469 68.242188 37.90625 68.28125 38.417969 68.339844 C 38.714844 68.375 38.945312 68.398438 39.101562 68.40625 C 39.261719 68.417969 39.402344 68.414062 39.519531 68.402344 C 39.820312 68.359375 40.070312 68.277344 40.273438 68.148438 C 40.472656 68.019531 40.65625 67.832031 40.816406 67.585938 C 40.871094 67.507812 40.933594 67.460938 41.011719 67.453125 Z M 42.003906 69.035156 C 41.691406 69.121094 41.414062 69.074219 41.167969 68.898438 C 40.917969 68.71875 40.746094 68.445312 40.648438 68.078125 C 40.539062 67.675781 40.53125 67.269531 40.621094 66.863281 C 40.710938 66.453125 40.878906 66.09375 41.128906 65.792969 C 41.382812 65.488281 41.679688 65.292969 42.027344 65.199219 C 42.140625 65.171875 42.21875 65.171875 42.265625 65.207031 C 42.316406 65.238281 42.367188 65.304688 42.421875 65.410156 C 42.523438 65.363281 42.632812 65.324219 42.746094 65.292969 C 42.996094 65.226562 43.140625 65.277344 43.1875 65.457031 C 43.21875 65.5625 43.246094 65.824219 43.277344 66.242188 C 43.316406 66.851562 43.367188 67.269531 43.429688 67.496094 C 43.449219 67.570312 43.484375 67.625 43.535156 67.660156 C 43.582031 67.699219 43.640625 67.707031 43.699219 67.691406 C 43.792969 67.664062 43.894531 67.570312 43.996094 67.410156 C 44.101562 67.253906 44.230469 67.003906 44.386719 66.664062 C 44.429688 66.578125 44.484375 66.527344 44.5625 66.503906 C 44.628906 66.488281 44.6875 66.503906 44.742188 66.554688 C 44.796875 66.605469 44.835938 66.683594 44.863281 66.785156 C 44.917969 66.988281 44.914062 67.15625 44.847656 67.292969 C 44.710938 67.605469 44.546875 67.878906 44.363281 68.117188 C 44.179688 68.359375 43.980469 68.503906 43.761719 68.5625 C 43.597656 68.609375 43.429688 68.59375 43.261719 68.515625 C 43.09375 68.441406 42.945312 68.3125 42.824219 68.136719 C 42.675781 68.628906 42.402344 68.929688 42.003906 69.035156 Z M 42.070312 68.199219 C 42.179688 68.167969 42.269531 68.078125 42.335938 67.917969 C 42.402344 67.757812 42.429688 67.566406 42.414062 67.339844 L 42.324219 65.871094 C 42.113281 65.9375 41.9375 66.066406 41.800781 66.269531 C 41.664062 66.472656 41.574219 66.710938 41.539062 66.992188 C 41.496094 67.269531 41.519531 67.554688 41.59375 67.835938 C 41.632812 67.988281 41.695312 68.097656 41.777344 68.15625 C 41.863281 68.214844 41.960938 68.226562 42.070312 68.199219 Z M 45.347656 68.054688 C 45.164062 68.128906 44.996094 68.085938 44.839844 67.921875 C 44.691406 67.757812 44.53125 67.460938 44.359375 67.035156 C 44.109375 66.40625 43.957031 65.773438 43.910156 65.136719 C 43.898438 64.976562 43.929688 64.847656 44 64.742188 C 44.074219 64.636719 44.199219 64.546875 44.378906 64.476562 C 44.476562 64.4375 44.546875 64.421875 44.597656 64.433594 C 44.644531 64.441406 44.683594 64.480469 44.710938 64.546875 C 44.742188 64.625 44.773438 64.8125 44.808594 65.113281 C 44.839844 65.324219 44.867188 65.511719 44.898438 65.667969 C 44.925781 65.824219 44.972656 66.011719 45.039062 66.234375 C 45.03125 65.753906 45.078125 65.34375 45.167969 65.003906 C 45.265625 64.664062 45.382812 64.398438 45.53125 64.207031 C 45.675781 64.023438 45.828125 63.898438 45.988281 63.832031 C 46.304688 63.707031 46.523438 63.800781 46.648438 64.117188 C 46.726562 64.304688 46.808594 64.667969 46.898438 65.203125 C 46.976562 65.660156 47.039062 65.957031 47.09375 66.09375 C 47.171875 66.285156 47.28125 66.355469 47.421875 66.300781 C 47.519531 66.257812 47.609375 66.152344 47.695312 65.980469 C 47.78125 65.8125 47.882812 65.546875 47.996094 65.191406 C 48.03125 65.101562 48.082031 65.042969 48.15625 65.015625 C 48.21875 64.988281 48.277344 64.996094 48.335938 65.039062 C 48.398438 65.082031 48.449219 65.15625 48.488281 65.257812 C 48.566406 65.453125 48.578125 65.621094 48.53125 65.761719 C 48.421875 66.105469 48.285156 66.402344 48.109375 66.664062 C 47.9375 66.925781 47.699219 67.117188 47.394531 67.238281 C 47.144531 67.335938 46.933594 67.339844 46.75 67.246094 C 46.566406 67.15625 46.417969 66.972656 46.308594 66.699219 C 46.257812 66.566406 46.195312 66.308594 46.121094 65.933594 C 46.0625 65.605469 46.011719 65.382812 45.964844 65.265625 C 45.933594 65.1875 45.890625 65.160156 45.839844 65.183594 C 45.777344 65.207031 45.71875 65.324219 45.671875 65.53125 C 45.625 65.738281 45.59375 66 45.578125 66.3125 C 45.566406 66.625 45.585938 66.945312 45.628906 67.269531 C 45.667969 67.515625 45.667969 67.695312 45.628906 67.804688 C 45.589844 67.914062 45.496094 67.996094 45.347656 68.054688 Z M 51.652344 62.996094 C 51.710938 62.960938 51.773438 62.960938 51.839844 62.996094 C 51.902344 63.03125 51.960938 63.097656 52.011719 63.191406 C 52.113281 63.378906 52.152344 63.542969 52.121094 63.691406 C 52.058594 64.019531 51.964844 64.328125 51.832031 64.613281 C 51.699219 64.902344 51.523438 65.105469 51.304688 65.226562 C 50.957031 65.421875 50.582031 65.363281 50.171875 65.058594 C 50.117188 65.40625 50.039062 65.664062 49.941406 65.824219 C 49.84375 65.988281 49.699219 66.121094 49.507812 66.226562 C 49.230469 66.382812 48.941406 66.40625 48.648438 66.300781 C 48.355469 66.191406 48.113281 65.972656 47.929688 65.640625 C 47.726562 65.273438 47.613281 64.894531 47.59375 64.496094 C 47.578125 64.097656 47.648438 63.722656 47.808594 63.375 C 47.96875 63.027344 48.207031 62.742188 48.523438 62.515625 C 48.117188 61.585938 47.863281 60.738281 47.757812 59.976562 C 47.652344 59.214844 47.800781 58.726562 48.195312 58.503906 C 48.390625 58.394531 48.601562 58.394531 48.832031 58.5 C 49.058594 58.605469 49.273438 58.835938 49.472656 59.199219 C 49.757812 59.707031 49.964844 60.371094 50.09375 61.195312 C 50.226562 62.015625 50.28125 62.902344 50.261719 63.855469 C 50.429688 64.113281 50.574219 64.277344 50.699219 64.355469 C 50.824219 64.4375 50.933594 64.449219 51.027344 64.394531 C 51.152344 64.328125 51.246094 64.203125 51.3125 64.023438 C 51.378906 63.84375 51.449219 63.566406 51.519531 63.191406 C 51.539062 63.097656 51.582031 63.03125 51.652344 62.996094 Z M 48.492188 59.214844 C 48.40625 59.265625 48.40625 59.464844 48.488281 59.820312 C 48.574219 60.175781 48.722656 60.621094 48.9375 61.148438 C 49.152344 61.679688 49.398438 62.222656 49.671875 62.78125 C 49.5625 61.386719 49.324219 60.351562 48.945312 59.675781 C 48.851562 59.503906 48.761719 59.378906 48.675781 59.300781 C 48.59375 59.222656 48.53125 59.195312 48.492188 59.214844 Z M 49.363281 65.40625 C 49.449219 65.355469 49.515625 65.273438 49.5625 65.15625 C 49.609375 65.035156 49.644531 64.84375 49.671875 64.582031 C 49.488281 64.359375 49.316406 64.097656 49.144531 63.792969 C 49.085938 63.683594 48.988281 63.5 48.859375 63.25 C 48.652344 63.46875 48.539062 63.75 48.515625 64.101562 C 48.492188 64.449219 48.566406 64.78125 48.742188 65.097656 C 48.929688 65.429688 49.132812 65.53125 49.363281 65.40625 Z M 55.832031 61.957031 C 55.308594 62.40625 54.800781 62.671875 54.3125 62.742188 C 53.824219 62.8125 53.40625 62.644531 53.050781 62.234375 C 52.867188 62.015625 52.761719 61.816406 52.738281 61.636719 C 52.714844 61.457031 52.777344 61.304688 52.921875 61.179688 C 53.03125 61.085938 53.140625 61.039062 53.253906 61.039062 C 53.371094 61.035156 53.464844 61.082031 53.539062 61.167969 C 53.605469 61.246094 53.660156 61.320312 53.699219 61.386719 C 53.714844 61.40625 53.734375 61.433594 53.761719 61.480469 C 53.789062 61.523438 53.824219 61.566406 53.859375 61.609375 C 54.011719 61.789062 54.214844 61.84375 54.46875 61.777344 C 54.726562 61.710938 55.015625 61.539062 55.339844 61.257812 C 55.675781 60.972656 55.886719 60.6875 55.972656 60.402344 C 56.058594 60.121094 56.007812 59.871094 55.820312 59.652344 C 55.707031 59.515625 55.566406 59.4375 55.394531 59.414062 C 55.226562 59.390625 55.046875 59.40625 54.859375 59.453125 C 54.671875 59.5 54.421875 59.578125 54.101562 59.683594 C 53.695312 59.828125 53.351562 59.925781 53.066406 59.984375 C 52.785156 60.042969 52.496094 60.039062 52.203125 59.96875 C 51.90625 59.902344 51.640625 59.730469 51.410156 59.460938 C 51.164062 59.175781 51.023438 58.855469 50.984375 58.503906 C 50.949219 58.152344 51.019531 57.792969 51.203125 57.421875 C 51.382812 57.054688 51.667969 56.707031 52.058594 56.375 C 52.347656 56.125 52.648438 55.941406 52.960938 55.816406 C 53.277344 55.699219 53.582031 55.660156 53.871094 55.710938 C 54.167969 55.761719 54.425781 55.914062 54.640625 56.167969 C 54.855469 56.414062 54.976562 56.636719 55.011719 56.828125 C 55.042969 57.015625 54.988281 57.175781 54.839844 57.300781 C 54.738281 57.390625 54.621094 57.433594 54.5 57.429688 C 54.378906 57.421875 54.28125 57.378906 54.203125 57.289062 C 54.140625 57.214844 54.085938 57.144531 54.042969 57.070312 C 53.953125 56.941406 53.894531 56.859375 53.867188 56.828125 C 53.726562 56.664062 53.535156 56.605469 53.300781 56.65625 C 53.0625 56.707031 52.824219 56.835938 52.582031 57.042969 C 52.242188 57.335938 52.035156 57.621094 51.964844 57.898438 C 51.886719 58.179688 51.949219 58.433594 52.140625 58.65625 C 52.269531 58.808594 52.425781 58.898438 52.613281 58.925781 C 52.796875 58.953125 52.988281 58.941406 53.1875 58.894531 C 53.386719 58.84375 53.65625 58.761719 53.988281 58.648438 C 54.394531 58.515625 54.730469 58.417969 54.996094 58.363281 C 55.265625 58.304688 55.535156 58.304688 55.808594 58.367188 C 56.085938 58.425781 56.328125 58.582031 56.542969 58.832031 C 56.941406 59.296875 57.070312 59.808594 56.933594 60.363281 C 56.792969 60.917969 56.425781 61.449219 55.832031 61.957031 Z M 59.34375 55.777344 C 59.386719 55.726562 59.445312 55.703125 59.519531 55.714844 C 59.59375 55.726562 59.671875 55.765625 59.75 55.835938 C 59.910156 55.972656 60 56.117188 60.023438 56.269531 C 60.078125 56.566406 60.0625 56.914062 59.980469 57.3125 C 59.902344 57.707031 59.734375 58.054688 59.46875 58.359375 C 59.113281 58.773438 58.722656 59 58.300781 59.035156 C 57.878906 59.070312 57.472656 58.921875 57.082031 58.582031 C 56.808594 58.347656 56.601562 58.070312 56.46875 57.753906 C 56.332031 57.4375 56.28125 57.121094 56.316406 56.796875 C 56.355469 56.472656 56.484375 56.183594 56.703125 55.925781 C 56.902344 55.699219 57.128906 55.574219 57.382812 55.554688 C 57.640625 55.535156 57.882812 55.621094 58.117188 55.820312 C 58.386719 56.054688 58.539062 56.355469 58.566406 56.71875 C 58.59375 57.085938 58.464844 57.546875 58.175781 58.113281 C 58.441406 58.167969 58.695312 58.058594 58.933594 57.78125 C 59.085938 57.605469 59.199219 57.351562 59.269531 57.015625 C 59.339844 56.683594 59.347656 56.34375 59.289062 56.003906 C 59.273438 55.910156 59.292969 55.835938 59.34375 55.777344 Z M 57.199219 56.527344 C 57.074219 56.671875 57.050781 56.871094 57.132812 57.117188 C 57.21875 57.367188 57.378906 57.589844 57.621094 57.800781 L 57.632812 57.808594 C 57.777344 57.527344 57.855469 57.273438 57.859375 57.042969 C 57.863281 56.816406 57.792969 56.636719 57.648438 56.511719 C 57.570312 56.445312 57.492188 56.414062 57.410156 56.417969 C 57.328125 56.417969 57.261719 56.457031 57.199219 56.527344 Z M 61.398438 55.894531 C 61.101562 56.3125 60.753906 56.550781 60.351562 56.617188 C 59.953125 56.683594 59.558594 56.578125 59.171875 56.300781 C 58.828125 56.058594 58.574219 55.777344 58.410156 55.457031 C 58.246094 55.136719 58.171875 54.820312 58.1875 54.503906 C 58.199219 54.1875 58.289062 53.910156 58.457031 53.671875 C 58.625 53.4375 58.820312 53.304688 59.050781 53.273438 C 59.28125 53.242188 59.507812 53.300781 59.722656 53.457031 C 59.902344 53.582031 60.023438 53.730469 60.09375 53.894531 C 60.160156 54.058594 60.148438 54.207031 60.058594 54.335938 C 60.003906 54.414062 59.9375 54.46875 59.863281 54.492188 C 59.789062 54.511719 59.71875 54.496094 59.648438 54.449219 C 59.621094 54.429688 59.589844 54.402344 59.558594 54.363281 C 59.527344 54.328125 59.503906 54.304688 59.488281 54.285156 C 59.441406 54.222656 59.390625 54.167969 59.332031 54.128906 C 59.277344 54.085938 59.226562 54.070312 59.175781 54.078125 C 59.125 54.085938 59.082031 54.113281 59.046875 54.167969 C 58.976562 54.261719 58.957031 54.386719 58.984375 54.53125 C 59.011719 54.679688 59.082031 54.832031 59.195312 54.988281 C 59.304688 55.144531 59.453125 55.285156 59.632812 55.410156 C 60.125 55.761719 60.523438 55.722656 60.828125 55.292969 C 60.953125 55.117188 61.027344 54.886719 61.054688 54.601562 C 61.078125 54.316406 61.042969 53.996094 60.945312 53.632812 C 60.925781 53.539062 60.9375 53.460938 60.980469 53.398438 C 61.019531 53.34375 61.078125 53.316406 61.148438 53.320312 C 61.222656 53.324219 61.304688 53.359375 61.394531 53.421875 C 61.554688 53.539062 61.660156 53.671875 61.703125 53.824219 C 61.808594 54.199219 61.828125 54.574219 61.765625 54.945312 C 61.703125 55.316406 61.582031 55.636719 61.398438 55.894531 Z M 62.6875 53.910156 C 62.574219 54.113281 62.382812 54.226562 62.121094 54.25 C 61.859375 54.273438 61.589844 54.207031 61.308594 54.046875 C 60.96875 53.855469 60.667969 53.65625 60.410156 53.449219 C 60.152344 53.242188 59.894531 53 59.636719 52.714844 C 59.527344 52.59375 59.464844 52.472656 59.453125 52.359375 C 59.4375 52.242188 59.480469 52.097656 59.582031 51.921875 C 59.636719 51.820312 59.695312 51.761719 59.746094 51.738281 C 59.800781 51.71875 59.859375 51.730469 59.921875 51.761719 C 59.957031 51.785156 60.066406 51.878906 60.25 52.046875 C 60.390625 52.183594 60.523438 52.308594 60.644531 52.414062 C 61.066406 52.773438 61.359375 52.996094 61.519531 53.089844 C 61.613281 53.140625 61.683594 53.167969 61.738281 53.167969 C 61.789062 53.164062 61.832031 53.140625 61.859375 53.09375 C 61.894531 53.023438 61.875 52.902344 61.796875 52.722656 C 61.71875 52.542969 61.574219 52.316406 61.363281 52.042969 C 61.152344 51.769531 60.878906 51.464844 60.535156 51.128906 C 60.417969 51.015625 60.351562 50.90625 60.335938 50.796875 C 60.316406 50.6875 60.351562 50.558594 60.4375 50.410156 C 60.496094 50.304688 60.550781 50.238281 60.597656 50.214844 C 60.644531 50.1875 60.703125 50.195312 60.773438 50.230469 C 60.886719 50.296875 61.164062 50.527344 61.609375 50.929688 C 62.117188 51.382812 62.4375 51.652344 62.574219 51.730469 C 62.660156 51.777344 62.738281 51.796875 62.804688 51.789062 C 62.875 51.777344 62.925781 51.742188 62.957031 51.683594 C 63.007812 51.59375 63.015625 51.457031 62.976562 51.265625 C 62.933594 51.078125 62.847656 50.808594 62.714844 50.460938 C 62.683594 50.371094 62.6875 50.292969 62.726562 50.226562 C 62.757812 50.167969 62.8125 50.132812 62.886719 50.128906 C 62.960938 50.125 63.042969 50.152344 63.140625 50.207031 C 63.320312 50.308594 63.4375 50.433594 63.488281 50.574219 C 63.617188 50.90625 63.695312 51.226562 63.722656 51.539062 C 63.75 51.851562 63.683594 52.148438 63.523438 52.4375 C 63.398438 52.652344 63.226562 52.765625 63 52.773438 C 62.773438 52.777344 62.507812 52.695312 62.203125 52.527344 C 62.46875 52.777344 62.640625 53.027344 62.71875 53.273438 C 62.796875 53.523438 62.789062 53.734375 62.6875 53.910156 Z M 64.378906 50.753906 C 64.300781 50.9375 64.148438 51.023438 63.925781 51.019531 C 63.703125 51.011719 63.378906 50.917969 62.957031 50.742188 C 62.332031 50.476562 61.777344 50.136719 61.292969 49.726562 C 61.171875 49.621094 61.097656 49.507812 61.074219 49.382812 C 61.050781 49.253906 61.078125 49.105469 61.152344 48.925781 C 61.191406 48.832031 61.234375 48.769531 61.273438 48.738281 C 61.316406 48.710938 61.371094 48.710938 61.4375 48.742188 C 61.511719 48.773438 61.671875 48.882812 61.910156 49.066406 C 62.078125 49.195312 62.230469 49.304688 62.363281 49.394531 C 62.496094 49.484375 62.660156 49.585938 62.867188 49.695312 C 62.519531 49.359375 62.257812 49.039062 62.082031 48.734375 C 61.910156 48.425781 61.804688 48.15625 61.773438 47.921875 C 61.742188 47.683594 61.761719 47.488281 61.828125 47.328125 C 61.957031 47.015625 62.183594 46.925781 62.496094 47.058594 C 62.558594 47.085938 62.699219 47.167969 62.921875 47.3125 C 63.097656 47.433594 63.207031 47.503906 63.257812 47.523438 C 63.425781 47.59375 63.535156 47.570312 63.585938 47.453125 C 63.640625 47.316406 63.609375 47.097656 63.488281 46.800781 C 63.449219 46.710938 63.445312 46.632812 63.476562 46.566406 C 63.503906 46.503906 63.550781 46.464844 63.621094 46.453125 C 63.691406 46.4375 63.773438 46.453125 63.863281 46.488281 C 64.039062 46.566406 64.160156 46.671875 64.21875 46.8125 C 64.300781 47.003906 64.351562 47.210938 64.375 47.433594 C 64.398438 47.65625 64.367188 47.867188 64.28125 48.070312 C 64.175781 48.324219 64.027344 48.488281 63.84375 48.566406 C 63.65625 48.644531 63.453125 48.632812 63.234375 48.539062 C 63.160156 48.507812 63.09375 48.472656 63.027344 48.429688 C 62.933594 48.378906 62.871094 48.347656 62.839844 48.332031 C 62.761719 48.300781 62.710938 48.3125 62.691406 48.363281 C 62.660156 48.433594 62.699219 48.5625 62.8125 48.75 C 62.921875 48.9375 63.085938 49.140625 63.300781 49.367188 C 63.515625 49.59375 63.753906 49.804688 64.015625 50 C 64.21875 50.148438 64.347656 50.273438 64.398438 50.378906 C 64.445312 50.480469 64.441406 50.609375 64.378906 50.753906 Z M 64.917969 43.953125 C 64.9375 43.886719 64.980469 43.847656 65.050781 43.828125 C 65.121094 43.808594 65.210938 43.8125 65.3125 43.84375 C 65.515625 43.90625 65.65625 44 65.738281 44.128906 C 65.90625 44.378906 66.035156 44.703125 66.121094 45.097656 C 66.210938 45.492188 66.195312 45.882812 66.078125 46.265625 C 65.921875 46.789062 65.65625 47.152344 65.28125 47.355469 C 64.910156 47.558594 64.480469 47.585938 63.984375 47.4375 C 63.640625 47.332031 63.339844 47.164062 63.089844 46.929688 C 62.835938 46.695312 62.660156 46.421875 62.5625 46.113281 C 62.464844 45.800781 62.46875 45.484375 62.566406 45.164062 C 62.652344 44.871094 62.808594 44.667969 63.035156 44.546875 C 63.261719 44.421875 63.519531 44.40625 63.8125 44.492188 C 64.15625 44.597656 64.414062 44.8125 64.589844 45.132812 C 64.761719 45.453125 64.828125 45.933594 64.792969 46.566406 C 65.0625 46.507812 65.25 46.304688 65.355469 45.957031 C 65.421875 45.730469 65.421875 45.453125 65.351562 45.117188 C 65.28125 44.785156 65.148438 44.472656 64.957031 44.1875 C 64.90625 44.105469 64.894531 44.027344 64.917969 43.953125 Z M 63.257812 45.511719 C 63.203125 45.695312 63.265625 45.882812 63.441406 46.074219 C 63.617188 46.269531 63.859375 46.410156 64.160156 46.503906 L 64.175781 46.507812 C 64.195312 46.191406 64.160156 45.929688 64.074219 45.714844 C 63.984375 45.503906 63.847656 45.371094 63.664062 45.3125 C 63.566406 45.285156 63.484375 45.289062 63.410156 45.324219 C 63.335938 45.359375 63.285156 45.421875 63.257812 45.511719 Z M 63.257812 45.511719 "/>
</g>
<path style=" stroke:none;fill-rule:nonzero;fill:rgb(7.45098%,3.529412%,7.058824%);fill-opacity:1;" d="M 6.226562 22.480469 C 6.25 22.414062 6.300781 22.375 6.375 22.359375 C 6.453125 22.34375 6.542969 22.359375 6.648438 22.398438 C 6.847656 22.476562 6.988281 22.585938 7.070312 22.726562 C 7.300781 23.140625 7.433594 23.511719 7.46875 23.832031 C 7.503906 24.148438 7.449219 24.5 7.304688 24.878906 C 7.203125 25.140625 7.074219 25.375 6.921875 25.570312 C 6.769531 25.769531 6.566406 26.003906 6.3125 26.277344 C 6.074219 26.519531 5.859375 26.757812 5.675781 26.992188 C 6.046875 27.4375 6.136719 27.917969 5.9375 28.4375 C 5.828125 28.722656 5.675781 28.925781 5.480469 29.046875 C 5.285156 29.167969 5.085938 29.1875 4.882812 29.109375 C 4.632812 29.011719 4.46875 28.8125 4.398438 28.511719 C 4.324219 28.207031 4.363281 27.859375 4.515625 27.460938 L 4.550781 27.363281 L 2.382812 26.371094 C 1.882812 26.144531 1.5 25.894531 1.226562 25.613281 C 0.957031 25.332031 0.753906 25.011719 0.625 24.652344 C 0.507812 24.339844 0.457031 24.011719 0.46875 23.671875 C 0.480469 23.332031 0.550781 22.996094 0.679688 22.65625 C 0.890625 22.105469 1.195312 21.738281 1.59375 21.554688 C 1.992188 21.367188 2.421875 21.363281 2.878906 21.539062 C 3.191406 21.65625 3.417969 21.8125 3.566406 21.996094 C 3.714844 22.179688 3.75 22.371094 3.675781 22.570312 C 3.621094 22.714844 3.542969 22.8125 3.441406 22.867188 C 3.339844 22.921875 3.230469 22.925781 3.101562 22.878906 C 3.054688 22.859375 2.976562 22.820312 2.859375 22.75 C 2.730469 22.667969 2.609375 22.601562 2.496094 22.558594 C 2.28125 22.476562 2.089844 22.472656 1.917969 22.550781 C 1.742188 22.628906 1.605469 22.792969 1.507812 23.046875 C 1.335938 23.496094 1.351562 23.898438 1.550781 24.253906 C 1.75 24.613281 2.148438 24.945312 2.75 25.25 L 4.417969 26.089844 C 4.652344 26.210938 4.851562 26.324219 5.015625 26.4375 C 5.195312 26.132812 5.441406 25.757812 5.75 25.316406 C 5.929688 25.054688 6.066406 24.855469 6.15625 24.71875 C 6.246094 24.578125 6.3125 24.445312 6.359375 24.328125 C 6.472656 24.035156 6.519531 23.761719 6.5 23.511719 C 6.484375 23.265625 6.402344 23 6.253906 22.726562 C 6.207031 22.640625 6.195312 22.558594 6.226562 22.480469 Z M 9.949219 19.820312 C 9.75 20.09375 9.492188 20.238281 9.175781 20.261719 C 8.859375 20.277344 8.539062 20.171875 8.21875 19.933594 C 7.863281 19.679688 7.589844 19.355469 7.390625 18.964844 C 7.195312 18.570312 7.097656 18.171875 7.105469 17.757812 C 7.109375 17.347656 7.222656 16.988281 7.441406 16.683594 C 7.511719 16.585938 7.578125 16.535156 7.640625 16.53125 C 7.703125 16.523438 7.789062 16.546875 7.902344 16.59375 C 7.953125 16.488281 8.015625 16.382812 8.089844 16.285156 C 8.246094 16.066406 8.402344 16.015625 8.554688 16.128906 C 8.648438 16.195312 8.847656 16.386719 9.148438 16.707031 C 9.582031 17.175781 9.894531 17.484375 10.09375 17.628906 C 10.160156 17.675781 10.226562 17.699219 10.289062 17.691406 C 10.355469 17.691406 10.40625 17.664062 10.445312 17.609375 C 10.503906 17.527344 10.523438 17.382812 10.503906 17.183594 C 10.480469 16.988281 10.421875 16.699219 10.328125 16.320312 C 10.304688 16.222656 10.316406 16.140625 10.363281 16.078125 C 10.40625 16.019531 10.464844 15.992188 10.542969 15.996094 C 10.617188 16 10.703125 16.039062 10.796875 16.105469 C 10.972656 16.234375 11.078125 16.375 11.117188 16.53125 C 11.210938 16.871094 11.261719 17.203125 11.269531 17.519531 C 11.273438 17.832031 11.207031 18.085938 11.070312 18.273438 C 10.964844 18.421875 10.816406 18.519531 10.632812 18.570312 C 10.445312 18.621094 10.242188 18.613281 10.023438 18.546875 C 10.226562 19.046875 10.203125 19.46875 9.949219 19.820312 Z M 9.457031 19.09375 C 9.527344 19 9.535156 18.863281 9.484375 18.691406 C 9.433594 18.519531 9.328125 18.347656 9.167969 18.167969 L 8.125 17.039062 C 7.996094 17.226562 7.941406 17.449219 7.964844 17.703125 C 7.984375 17.960938 8.070312 18.210938 8.226562 18.464844 C 8.378906 18.71875 8.578125 18.933594 8.824219 19.113281 C 8.964844 19.210938 9.085938 19.257812 9.191406 19.25 C 9.296875 19.246094 9.382812 19.191406 9.457031 19.09375 Z M 14.351562 14.699219 C 14.191406 14.832031 14.011719 14.84375 13.804688 14.730469 C 13.601562 14.617188 13.34375 14.375 13.035156 14.007812 C 12.582031 13.460938 12.226562 12.882812 11.972656 12.265625 C 11.910156 12.109375 11.894531 11.96875 11.933594 11.839844 C 11.972656 11.710938 12.070312 11.585938 12.226562 11.453125 C 12.308594 11.382812 12.375 11.347656 12.425781 11.339844 C 12.476562 11.332031 12.527344 11.359375 12.578125 11.417969 C 12.632812 11.484375 12.726562 11.660156 12.859375 11.949219 C 12.957031 12.148438 13.046875 12.324219 13.128906 12.46875 C 13.207031 12.617188 13.316406 12.789062 13.453125 12.988281 C 13.289062 12.511719 13.199219 12.089844 13.183594 11.71875 C 13.164062 11.351562 13.199219 11.046875 13.285156 10.8125 C 13.367188 10.582031 13.480469 10.40625 13.621094 10.289062 C 13.890625 10.0625 14.140625 10.085938 14.367188 10.355469 C 14.503906 10.519531 14.707031 10.851562 14.96875 11.355469 C 15.195312 11.785156 15.355469 12.0625 15.453125 12.179688 C 15.59375 12.347656 15.726562 12.378906 15.847656 12.277344 C 15.929688 12.207031 15.984375 12.074219 16.015625 11.875 C 16.042969 11.675781 16.058594 11.382812 16.058594 10.992188 C 16.0625 10.886719 16.09375 10.8125 16.15625 10.761719 C 16.210938 10.714844 16.273438 10.703125 16.347656 10.726562 C 16.421875 10.75 16.496094 10.804688 16.566406 10.894531 C 16.707031 11.0625 16.777344 11.226562 16.773438 11.386719 C 16.777344 11.757812 16.738281 12.101562 16.648438 12.414062 C 16.5625 12.730469 16.386719 13 16.121094 13.21875 C 15.910156 13.398438 15.695312 13.472656 15.484375 13.441406 C 15.269531 13.40625 15.066406 13.273438 14.871094 13.039062 C 14.773438 12.921875 14.625 12.6875 14.433594 12.335938 C 14.269531 12.027344 14.144531 11.824219 14.058594 11.722656 C 14.003906 11.65625 13.953125 11.640625 13.90625 11.679688 C 13.851562 11.726562 13.835938 11.859375 13.851562 12.082031 C 13.871094 12.304688 13.925781 12.574219 14.015625 12.890625 C 14.105469 13.207031 14.226562 13.515625 14.378906 13.824219 C 14.496094 14.058594 14.550781 14.238281 14.550781 14.355469 C 14.546875 14.476562 14.480469 14.589844 14.351562 14.699219 Z M 23.242188 7.019531 C 23.308594 6.988281 23.371094 6.992188 23.4375 7.035156 C 23.5 7.074219 23.558594 7.148438 23.609375 7.25 C 23.699219 7.449219 23.726562 7.625 23.683594 7.777344 C 23.597656 8.121094 23.472656 8.4375 23.3125 8.722656 C 23.15625 9.011719 22.957031 9.214844 22.71875 9.324219 C 22.34375 9.5 21.957031 9.417969 21.550781 9.074219 C 21.46875 9.429688 21.367188 9.691406 21.257812 9.851562 C 21.140625 10.015625 20.984375 10.144531 20.773438 10.242188 C 20.472656 10.382812 20.171875 10.390625 19.871094 10.257812 C 19.570312 10.125 19.335938 9.878906 19.167969 9.515625 C 18.980469 9.121094 18.890625 8.71875 18.898438 8.300781 C 18.910156 7.882812 19.007812 7.496094 19.199219 7.144531 C 19.394531 6.789062 19.664062 6.507812 20.011719 6.296875 C 19.652344 5.296875 19.445312 4.394531 19.390625 3.589844 C 19.335938 2.789062 19.519531 2.285156 19.949219 2.082031 C 20.164062 1.984375 20.382812 1.996094 20.617188 2.121094 C 20.847656 2.246094 21.054688 2.503906 21.238281 2.894531 C 21.5 3.449219 21.667969 4.160156 21.746094 5.027344 C 21.824219 5.894531 21.816406 6.828125 21.734375 7.820312 C 21.886719 8.097656 22.027344 8.28125 22.152344 8.375 C 22.273438 8.464844 22.390625 8.488281 22.492188 8.4375 C 22.625 8.375 22.734375 8.253906 22.816406 8.066406 C 22.898438 7.882812 22.988281 7.601562 23.089844 7.214844 C 23.121094 7.117188 23.171875 7.054688 23.242188 7.019531 Z M 20.210938 2.847656 C 20.117188 2.890625 20.101562 3.101562 20.164062 3.476562 C 20.226562 3.855469 20.355469 4.328125 20.539062 4.898438 C 20.726562 5.46875 20.945312 6.050781 21.191406 6.65625 C 21.175781 5.191406 20.996094 4.09375 20.652344 3.363281 C 20.5625 3.175781 20.480469 3.035156 20.398438 2.949219 C 20.320312 2.859375 20.257812 2.824219 20.210938 2.847656 Z M 20.683594 9.371094 C 20.773438 9.328125 20.851562 9.246094 20.90625 9.125 C 20.96875 9.003906 21.019531 8.808594 21.066406 8.53125 C 20.886719 8.289062 20.722656 8.003906 20.566406 7.671875 C 20.511719 7.550781 20.425781 7.359375 20.308594 7.085938 C 20.078125 7.300781 19.9375 7.585938 19.886719 7.953125 C 19.839844 8.3125 19.898438 8.667969 20.058594 9.007812 C 20.226562 9.367188 20.433594 9.488281 20.683594 9.371094 Z M 34.453125 7.050781 C 34.136719 7.039062 33.78125 7.003906 33.382812 6.9375 C 33.167969 6.902344 33.019531 6.839844 32.9375 6.753906 C 32.859375 6.664062 32.828125 6.519531 32.84375 6.324219 C 32.898438 5.785156 33.007812 5.121094 33.175781 4.332031 C 33.339844 3.542969 33.535156 2.78125 33.757812 2.050781 C 33.796875 1.917969 33.878906 1.824219 33.992188 1.773438 C 34.109375 1.722656 34.261719 1.699219 34.445312 1.703125 C 34.777344 1.714844 34.941406 1.8125 34.9375 1.996094 C 34.933594 2.074219 34.914062 2.160156 34.878906 2.257812 C 34.726562 2.6875 34.566406 3.269531 34.402344 4 C 34.242188 4.730469 34.121094 5.425781 34.039062 6.089844 C 34.203125 6.109375 34.386719 6.125 34.59375 6.128906 C 35.550781 6.15625 36.269531 5.890625 36.757812 5.324219 C 37.246094 4.761719 37.507812 3.996094 37.535156 3.03125 C 37.554688 2.378906 37.382812 1.875 37.023438 1.507812 C 36.664062 1.144531 36.144531 0.953125 35.46875 0.929688 C 35.03125 0.917969 34.597656 0.976562 34.164062 1.097656 C 33.734375 1.222656 33.34375 1.390625 32.992188 1.605469 C 32.917969 1.652344 32.84375 1.675781 32.761719 1.671875 C 32.667969 1.667969 32.59375 1.628906 32.542969 1.546875 C 32.492188 1.464844 32.46875 1.367188 32.472656 1.253906 C 32.472656 1.121094 32.5 1.015625 32.546875 0.929688 C 32.589844 0.847656 32.667969 0.773438 32.773438 0.707031 C 33.15625 0.460938 33.605469 0.277344 34.117188 0.160156 C 34.628906 0.0390625 35.117188 -0.0117188 35.585938 0 C 36.25 0.0234375 36.820312 0.152344 37.300781 0.398438 C 37.777344 0.648438 38.140625 0.996094 38.394531 1.449219 C 38.640625 1.90625 38.753906 2.449219 38.734375 3.082031 C 38.710938 3.90625 38.527344 4.621094 38.183594 5.222656 C 37.839844 5.828125 37.347656 6.289062 36.710938 6.609375 C 36.074219 6.925781 35.320312 7.074219 34.453125 7.050781 Z M 47.074219 7.035156 C 47.140625 7.054688 47.179688 7.109375 47.191406 7.191406 C 47.203125 7.269531 47.191406 7.359375 47.15625 7.464844 C 47.066406 7.710938 46.941406 7.828125 46.773438 7.820312 C 46.429688 7.820312 46.070312 7.765625 45.691406 7.648438 C 45.441406 8.042969 45.125 8.320312 44.746094 8.476562 C 44.367188 8.636719 43.992188 8.648438 43.628906 8.519531 C 43.320312 8.410156 43.082031 8.242188 42.917969 8.015625 C 42.753906 7.789062 42.65625 7.535156 42.628906 7.246094 C 42.605469 6.957031 42.644531 6.671875 42.746094 6.382812 C 42.882812 5.992188 43.082031 5.671875 43.339844 5.417969 C 43.597656 5.164062 43.886719 5 44.210938 4.921875 C 44.535156 4.839844 44.855469 4.859375 45.175781 4.972656 C 45.566406 5.109375 45.832031 5.359375 45.976562 5.710938 C 46.117188 6.066406 46.140625 6.449219 46.042969 6.859375 C 46.289062 6.929688 46.59375 6.980469 46.960938 7.011719 C 47.003906 7.015625 47.042969 7.023438 47.074219 7.035156 Z M 43.980469 7.726562 C 44.144531 7.785156 44.308594 7.765625 44.476562 7.679688 C 44.648438 7.585938 44.796875 7.421875 44.929688 7.1875 C 44.804688 7.023438 44.734375 6.835938 44.710938 6.628906 C 44.691406 6.425781 44.710938 6.226562 44.78125 6.03125 C 44.8125 5.949219 44.847656 5.867188 44.890625 5.792969 L 44.855469 5.777344 C 44.648438 5.703125 44.441406 5.742188 44.234375 5.890625 C 44.027344 6.042969 43.863281 6.296875 43.734375 6.65625 C 43.632812 6.941406 43.613281 7.175781 43.671875 7.363281 C 43.726562 7.550781 43.832031 7.671875 43.980469 7.726562 Z M 50.117188 11.621094 C 49.667969 11.332031 49.398438 10.980469 49.3125 10.566406 C 49.222656 10.152344 49.3125 9.734375 49.582031 9.316406 C 49.820312 8.945312 50.101562 8.667969 50.429688 8.480469 C 50.753906 8.292969 51.085938 8.199219 51.414062 8.199219 C 51.746094 8.199219 52.039062 8.277344 52.296875 8.445312 C 52.550781 8.605469 52.699219 8.804688 52.742188 9.042969 C 52.789062 9.28125 52.734375 9.519531 52.585938 9.753906 C 52.460938 9.949219 52.316406 10.085938 52.144531 10.164062 C 51.976562 10.242188 51.820312 10.234375 51.683594 10.148438 C 51.59375 10.089844 51.539062 10.027344 51.511719 9.953125 C 51.484375 9.875 51.496094 9.800781 51.542969 9.730469 C 51.5625 9.699219 51.59375 9.664062 51.628906 9.625 C 51.664062 9.59375 51.6875 9.566406 51.703125 9.550781 C 51.773438 9.496094 51.828125 9.4375 51.863281 9.378906 C 51.902344 9.320312 51.917969 9.265625 51.90625 9.214844 C 51.898438 9.160156 51.867188 9.117188 51.8125 9.082031 C 51.703125 9.015625 51.574219 9 51.425781 9.035156 C 51.273438 9.070312 51.117188 9.152344 50.960938 9.273438 C 50.800781 9.402344 50.660156 9.558594 50.535156 9.753906 C 50.195312 10.285156 50.257812 10.699219 50.722656 11 C 50.910156 11.121094 51.152344 11.183594 51.453125 11.199219 C 51.75 11.214844 52.085938 11.160156 52.457031 11.046875 C 52.554688 11.015625 52.640625 11.023438 52.707031 11.066406 C 52.769531 11.105469 52.796875 11.164062 52.796875 11.238281 C 52.796875 11.316406 52.765625 11.402344 52.703125 11.5 C 52.589844 11.675781 52.457031 11.789062 52.296875 11.84375 C 51.910156 11.972656 51.519531 12.011719 51.128906 11.964844 C 50.734375 11.917969 50.398438 11.800781 50.117188 11.621094 Z M 58.582031 16.644531 C 58.628906 16.695312 58.644531 16.757812 58.628906 16.832031 C 58.609375 16.90625 58.558594 16.984375 58.476562 17.0625 C 58.320312 17.214844 58.160156 17.292969 58 17.304688 C 57.617188 17.335938 57.269531 17.320312 56.96875 17.265625 C 56.664062 17.207031 56.394531 17.054688 56.152344 16.808594 C 55.863281 16.503906 55.714844 16.179688 55.710938 15.828125 C 55.707031 15.476562 55.847656 15.164062 56.136719 14.886719 C 56.289062 14.738281 56.472656 14.710938 56.691406 14.804688 C 56.933594 14.90625 57.132812 14.953125 57.289062 14.945312 C 57.445312 14.941406 57.585938 14.878906 57.707031 14.761719 C 57.777344 14.695312 57.816406 14.628906 57.824219 14.5625 C 57.828125 14.5 57.8125 14.449219 57.773438 14.40625 C 57.667969 14.300781 57.480469 14.253906 57.203125 14.273438 C 56.925781 14.292969 56.613281 14.363281 56.269531 14.488281 C 55.917969 14.609375 55.585938 14.761719 55.273438 14.945312 C 55.046875 15.078125 54.871094 15.148438 54.753906 15.152344 C 54.632812 15.160156 54.515625 15.101562 54.398438 14.976562 C 54.28125 14.855469 54.238281 14.722656 54.273438 14.582031 C 54.304688 14.441406 54.402344 14.273438 54.570312 14.074219 C 54.738281 13.875 55 13.605469 55.355469 13.261719 C 55.960938 12.679688 56.652344 12.136719 57.429688 11.628906 C 58.207031 11.121094 58.933594 10.773438 59.613281 10.585938 C 60.292969 10.398438 60.792969 10.476562 61.117188 10.816406 C 61.292969 10.996094 61.355469 11.214844 61.308594 11.480469 C 61.261719 11.738281 61.113281 11.988281 60.863281 12.226562 C 60.46875 12.605469 59.945312 12.886719 59.296875 13.066406 C 58.644531 13.242188 57.78125 13.34375 56.710938 13.371094 C 56.492188 13.554688 56.277344 13.75 56.0625 13.957031 C 56.734375 13.675781 57.300781 13.546875 57.757812 13.578125 C 58.210938 13.609375 58.542969 13.730469 58.746094 13.945312 C 58.9375 14.140625 59.019531 14.363281 59.003906 14.609375 C 58.984375 14.859375 58.875 15.078125 58.679688 15.265625 C 58.464844 15.476562 58.210938 15.609375 57.925781 15.671875 C 57.636719 15.738281 57.296875 15.703125 56.898438 15.574219 C 56.804688 15.691406 56.765625 15.820312 56.777344 15.964844 C 56.789062 16.105469 56.851562 16.234375 56.960938 16.351562 C 57.078125 16.472656 57.238281 16.542969 57.445312 16.570312 C 57.648438 16.589844 57.949219 16.589844 58.34375 16.5625 C 58.445312 16.558594 58.527344 16.585938 58.582031 16.644531 Z M 60.414062 11.25 C 60.347656 11.179688 60.171875 11.199219 59.886719 11.304688 C 59.597656 11.414062 59.246094 11.59375 58.824219 11.84375 C 58.402344 12.09375 57.964844 12.386719 57.507812 12.726562 C 58.03125 12.695312 58.539062 12.59375 59.03125 12.429688 C 59.519531 12.265625 59.90625 12.050781 60.179688 11.785156 C 60.304688 11.664062 60.386719 11.558594 60.429688 11.464844 C 60.46875 11.375 60.464844 11.300781 60.414062 11.25 Z M 62.34375 22.574219 C 62.378906 22.636719 62.378906 22.699219 62.339844 22.769531 C 62.304688 22.835938 62.238281 22.898438 62.136719 22.957031 C 61.949219 23.066406 61.773438 23.105469 61.617188 23.074219 C 61.304688 23.019531 60.96875 22.886719 60.605469 22.667969 C 60.242188 22.449219 59.957031 22.160156 59.75 21.796875 C 59.464844 21.300781 59.378906 20.835938 59.488281 20.40625 C 59.601562 19.980469 59.890625 19.628906 60.359375 19.359375 C 60.6875 19.175781 61.03125 19.070312 61.390625 19.042969 C 61.753906 19.019531 62.085938 19.082031 62.386719 19.230469 C 62.695312 19.382812 62.933594 19.609375 63.113281 19.914062 C 63.269531 20.191406 63.3125 20.457031 63.246094 20.71875 C 63.175781 20.976562 63.003906 21.1875 62.722656 21.347656 C 62.398438 21.535156 62.050781 21.578125 61.683594 21.476562 C 61.3125 21.378906 60.898438 21.085938 60.441406 20.605469 C 60.292969 20.847656 60.3125 21.136719 60.503906 21.46875 C 60.625 21.683594 60.839844 21.882812 61.144531 22.066406 C 61.449219 22.257812 61.777344 22.378906 62.132812 22.4375 C 62.230469 22.457031 62.300781 22.503906 62.34375 22.574219 Z M 62.347656 20.195312 C 62.246094 20.019531 62.058594 19.929688 61.789062 19.925781 C 61.515625 19.921875 61.234375 20.003906 60.945312 20.167969 L 60.929688 20.175781 C 61.15625 20.417969 61.382812 20.582031 61.609375 20.667969 C 61.832031 20.75 62.03125 20.742188 62.207031 20.640625 C 62.296875 20.589844 62.355469 20.523438 62.382812 20.445312 C 62.410156 20.363281 62.398438 20.28125 62.347656 20.195312 Z M 64.683594 29.195312 C 64.707031 29.261719 64.691406 29.328125 64.640625 29.382812 C 64.589844 29.441406 64.511719 29.488281 64.398438 29.519531 C 64.191406 29.585938 64.015625 29.582031 63.867188 29.515625 C 63.523438 29.375 63.222656 29.199219 62.964844 28.984375 C 62.710938 28.769531 62.527344 28.492188 62.425781 28.148438 C 62.105469 27.082031 62.695312 26.324219 64.195312 25.875 C 64.425781 25.804688 64.660156 25.742188 64.898438 25.6875 L 64.808594 25.382812 C 64.761719 25.226562 64.757812 25.109375 64.800781 25.039062 C 64.839844 24.964844 64.921875 24.910156 65.046875 24.875 C 65.339844 24.785156 65.523438 24.859375 65.59375 25.097656 L 65.726562 25.542969 C 66.328125 25.460938 66.894531 25.4375 67.425781 25.476562 C 67.957031 25.515625 68.402344 25.625 68.761719 25.796875 C 69.121094 25.972656 69.34375 26.210938 69.433594 26.507812 C 69.5 26.726562 69.453125 26.929688 69.296875 27.113281 C 69.140625 27.296875 68.917969 27.429688 68.625 27.519531 C 67.816406 27.761719 67.007812 27.632812 66.203125 27.132812 L 66.46875 28.011719 C 66.492188 28.09375 66.492188 28.160156 66.464844 28.207031 C 66.441406 28.253906 66.378906 28.296875 66.277344 28.324219 C 65.917969 28.433594 65.652344 28.191406 65.472656 27.601562 L 65.1875 26.644531 C 64.921875 26.710938 64.71875 26.769531 64.570312 26.8125 C 64.027344 26.976562 63.664062 27.152344 63.480469 27.347656 C 63.300781 27.542969 63.253906 27.777344 63.335938 28.054688 C 63.402344 28.277344 63.53125 28.457031 63.71875 28.589844 C 63.90625 28.71875 64.171875 28.863281 64.511719 29.015625 C 64.605469 29.058594 64.664062 29.117188 64.683594 29.195312 Z M 68.617188 26.523438 C 68.59375 26.441406 68.46875 26.386719 68.246094 26.347656 C 68.019531 26.308594 67.71875 26.300781 67.347656 26.316406 C 66.972656 26.332031 66.566406 26.378906 66.125 26.445312 C 66.484375 26.675781 66.855469 26.816406 67.234375 26.871094 C 67.609375 26.925781 67.933594 26.914062 68.207031 26.832031 C 68.515625 26.742188 68.652344 26.636719 68.617188 26.523438 Z M 68.617188 26.523438 "/>
<path style=" stroke:none;fill-rule:nonzero;fill:rgb(7.45098%,3.529412%,7.058824%);fill-opacity:1;" d="M 1.933594 36.519531 C 1.933594 36.035156 2.328125 35.636719 2.816406 35.636719 C 3.304688 35.636719 3.699219 36.035156 3.699219 36.519531 C 3.699219 37.007812 3.304688 37.402344 2.816406 37.402344 C 2.328125 37.402344 1.933594 37.007812 1.933594 36.519531 Z M 64.761719 36.519531 C 64.761719 36.035156 65.15625 35.636719 65.640625 35.636719 C 66.128906 35.636719 66.523438 36.035156 66.523438 36.519531 C 66.523438 37.007812 66.128906 37.402344 65.640625 37.402344 C 65.15625 37.402344 64.761719 37.007812 64.761719 36.519531 Z M 64.761719 36.519531 "/>
</g>
</svg>
